<?xml version="1.0" encoding="UTF-8"?>
<!DOCTYPE svg PUBLIC "-//W3C//DTD SVG 1.1//EN" "http://www.w3.org/Graphics/SVG/1.1/DTD/svg11.dtd">
<!-- Creator: CorelDRAW 2020 (64-Bit) -->
<svg xmlns="http://www.w3.org/2000/svg" xml:space="preserve" width="29.7844mm" height="29.7844mm" version="1.1" style="shape-rendering:geometricPrecision; text-rendering:geometricPrecision; image-rendering:optimizeQuality; fill-rule:evenodd; clip-rule:evenodd"
viewBox="0 0 14.02 14.02"
 xmlns:xlink="http://www.w3.org/1999/xlink"
 xmlns:xodm="http://www.corel.com/coreldraw/odm/2003">
 <defs>
  <style type="text/css">
   <![CDATA[
    .fil0 {fill:#01BBBE}
    .fil1 {fill:white}
   ]]>
  </style>
 </defs>
 <g id="mi_x0020_cuenta">
  <metadata id="CorelCorpID_0Corel-Layer"/>
  <g id="_2317198081264">
   <circle class="fil0" cx="7.01" cy="7.01" r="7.01"/>
   <g>
    <path class="fil1" d="M5.84 10.46c-0.63,0.09 -1.13,0.05 -1.47,-0.34 -0.16,-0.19 -0.25,-0.62 -0.58,-0.85 -0.12,-0.08 -0.23,-0.11 -0.24,-0.25 0.17,-0.16 0.49,-0.01 0.63,0.09 0.37,0.26 0.38,0.68 0.91,0.81 0.24,0.06 0.54,0 0.74,-0.09 0.04,-0.08 0.07,-0.25 0.11,-0.34 0.07,-0.16 0.14,-0.19 0.19,-0.3 -0.44,-0.04 -0.87,-0.16 -1.2,-0.35 -0.99,-0.56 -1.19,-2.16 -0.63,-2.98 0.06,-0.09 0.11,-0.14 0.18,-0.22 -0.06,-0.25 -0.11,-0.36 -0.09,-0.65 0.01,-0.19 0.06,-0.45 0.15,-0.59 0.39,-0.04 0.88,0.22 1.14,0.39 0.11,0.07 0.1,0.11 0.25,0.07 0.12,-0.03 0.22,-0.05 0.34,-0.07 0.47,-0.08 0.97,-0.08 1.44,-0 0.51,0.08 0.39,0.15 0.6,0.01 0.25,-0.16 0.76,-0.44 1.15,-0.4 0.09,0.15 0.13,0.4 0.15,0.59 0.02,0.29 -0.03,0.41 -0.09,0.65 0.27,0.32 0.43,0.6 0.47,1.06 0.04,0.44 -0.03,0.96 -0.2,1.32 -0.32,0.73 -0.95,1.04 -1.93,1.16 0.01,0.03 0.08,0.11 0.11,0.16 0.14,0.21 0.18,0.44 0.19,0.7 0.02,1.41 -0.21,1.78 0.73,1.36 0.3,-0.14 0.52,-0.26 0.78,-0.43 2.12,-1.38 2.72,-4.52 1.09,-6.65 -0.6,-0.78 -1.6,-1.58 -3.01,-1.8 -2.86,-0.44 -5.15,1.61 -5.44,4.07 -0.09,0.76 0.01,1.44 0.24,2.09 0.1,0.3 0.24,0.57 0.39,0.82 0.08,0.14 0.16,0.25 0.24,0.37 0.07,0.1 0.19,0.26 0.27,0.33 0.49,0.49 0.69,0.7 1.35,1.06 0.15,0.08 0.7,0.36 0.89,0.28 0.17,-0.07 0.14,-0.27 0.14,-0.47 -0,-0.2 -0,-0.41 -0,-0.61l0 0z"/>
    <path class="fil1" d="M4.9 9.97c-0,0 -0.07,0.02 0,0.09 0.02,0.02 0.07,0.03 0.11,0.03 0.11,-0.02 0.03,-0.2 -0.11,-0.12l0 -0z"/>
    <path class="fil1" d="M5.26 10.12c0.08,0.04 0.17,0.07 0.2,-0.05 -0.08,-0.08 -0.19,-0.09 -0.2,0.05z"/>
    <path class="fil1" d="M5.62 10.08c0.1,0.06 0.22,-0 0.18,-0.07 -0.02,-0.06 -0.2,-0.09 -0.18,0.07z"/>
    <path class="fil1" d="M4.72 9.91c0.01,-0.12 -0.03,-0.17 -0.15,-0.15 -0.02,0.12 0.04,0.16 0.15,0.15z"/>
    <path class="fil1" d="M4.35 9.5c-0.03,0.1 0.01,0.15 0.12,0.14 0.01,-0.12 -0.02,-0.18 -0.12,-0.14z"/>
    <path class="fil1" d="M4.18 9.25c-0,0 -0.06,0.03 0,0.1 0.05,0.05 0.06,0.03 0.1,0.02 0,-0.09 -0.03,-0.13 -0.11,-0.11l-0 -0z"/>
    <path class="fil1" d="M3.96 9.1c0.02,0.09 0.02,0.09 0.13,0.07 -0.01,-0.08 -0.05,-0.12 -0.13,-0.07z"/>
   </g>
  </g>
 </g>
</svg>
