<?xml version="1.0" encoding="UTF-8"?>
<!DOCTYPE svg PUBLIC "-//W3C//DTD SVG 1.1//EN" "http://www.w3.org/Graphics/SVG/1.1/DTD/svg11.dtd">
<!-- Creator: CorelDRAW 2020 (64-Bit) -->
<svg xmlns="http://www.w3.org/2000/svg" xml:space="preserve" width="29.7845mm" height="29.7845mm" version="1.1" style="shape-rendering:geometricPrecision; text-rendering:geometricPrecision; image-rendering:optimizeQuality; fill-rule:evenodd; clip-rule:evenodd"
viewBox="0 0 224.46 224.46"
 xmlns:xlink="http://www.w3.org/1999/xlink"
 xmlns:xodm="http://www.corel.com/coreldraw/odm/2003">
 <defs>
  <style type="text/css">
   <![CDATA[
    .fil0 {fill:#2059BD}
    .fil1 {fill:white}
   ]]>
  </style>
 </defs>
 <g id="Capa_x0020_1">
  <metadata id="CorelCorpID_0Corel-Layer"/>
  <g id="_2479549667072">
   <circle class="fil0" cx="112.23" cy="112.23" r="112.23"/>
   <g>
    <path class="fil1" d="M93.51 167.53c-10.15,1.49 -18.08,0.88 -23.46,-5.5 -2.57,-3.05 -3.98,-9.99 -9.27,-13.66 -1.86,-1.29 -3.65,-1.72 -3.85,-4.05 2.69,-2.54 7.88,-0.11 10.06,1.42 5.89,4.14 6.03,10.87 14.64,12.97 3.84,0.94 8.71,0.02 11.86,-1.48 0.71,-1.21 1.12,-3.99 1.74,-5.45 1.08,-2.58 2.32,-3.07 3.08,-4.73 -7.05,-0.64 -13.96,-2.57 -19.2,-5.55 -15.89,-9.03 -19.07,-34.55 -10.04,-47.76 1,-1.46 1.79,-2.26 2.85,-3.49 -0.92,-3.93 -1.7,-5.75 -1.41,-10.43 0.19,-3.03 0.92,-7.14 2.35,-9.49 6.26,-0.71 14.06,3.59 18.24,6.18 1.73,1.07 1.68,1.73 4.07,1.11 1.91,-0.49 3.5,-0.82 5.42,-1.14 7.52,-1.24 15.58,-1.28 23.11,-0.05 8.1,1.32 6.18,2.43 9.59,0.23 4.02,-2.59 12.2,-7.03 18.45,-6.33 1.42,2.41 2.16,6.42 2.35,9.49 0.3,4.68 -0.49,6.5 -1.41,10.43 4.38,5.12 6.86,9.56 7.57,16.96 0.67,7.05 -0.56,15.37 -3.14,21.19 -5.19,11.73 -15.22,16.64 -30.84,18.63 0.23,0.47 1.34,1.81 1.79,2.5 2.21,3.33 2.96,7.05 3.02,11.26 0.33,22.53 -3.38,28.5 11.69,21.71 4.87,-2.2 8.35,-4.24 12.44,-6.91 34.02,-22.16 43.58,-72.43 17.39,-106.43 -9.65,-12.53 -25.58,-25.32 -48.15,-28.84 -45.77,-7.12 -82.46,25.81 -87.06,65.12 -1.42,12.1 0.19,22.98 3.79,33.52 1.65,4.82 3.81,9.15 6.19,13.15 1.31,2.2 2.54,4.05 3.83,5.85 1.12,1.57 3.11,4.14 4.32,5.35 7.82,7.8 11.03,11.25 21.68,16.99 2.44,1.32 11.17,5.71 14.19,4.55 2.78,-1.06 2.22,-4.32 2.2,-7.58 -0.03,-3.24 -0.03,-6.49 -0.08,-9.74z"/>
    <path class="fil1" d="M78.41 159.65c-0.01,0.02 -1.09,0.34 0.03,1.47 0.31,0.31 1.18,0.55 1.78,0.43 1.82,-0.37 0.54,-3.13 -1.81,-1.89z"/>
    <path class="fil1" d="M84.15 162.01c1.29,0.62 2.76,1.06 3.15,-0.86 -1.21,-1.24 -3.05,-1.47 -3.15,0.86z"/>
    <path class="fil1" d="M90.05 161.37c1.62,0.89 3.45,-0.01 2.93,-1.15 -0.4,-0.89 -3.17,-1.39 -2.93,1.15z"/>
    <path class="fil1" d="M75.6 158.64c0.23,-1.89 -0.53,-2.73 -2.41,-2.39 -0.35,1.85 0.59,2.52 2.41,2.39z"/>
    <path class="fil1" d="M69.7 152.04c-0.48,1.61 0.15,2.33 1.97,2.31 0.22,-1.97 -0.26,-2.81 -1.97,-2.31z"/>
    <path class="fil1" d="M66.91 148.1c-0.03,0.06 -0.92,0.54 0.07,1.58 0.82,0.87 0.92,0.43 1.68,0.25 0.01,-1.43 -0.43,-2.01 -1.74,-1.83z"/>
    <path class="fil1" d="M63.43 145.65c0.36,1.42 0.28,1.48 2.04,1.13 -0.15,-1.24 -0.85,-1.85 -2.04,-1.13z"/>
   </g>
  </g>
 </g>
</svg>
