<?xml version="1.0" encoding="UTF-8"?>
<!DOCTYPE svg PUBLIC "-//W3C//DTD SVG 1.1//EN" "http://www.w3.org/Graphics/SVG/1.1/DTD/svg11.dtd">
<!-- Creator: CorelDRAW 2020 (64-Bit) -->
<svg xmlns="http://www.w3.org/2000/svg" xml:space="preserve" width="41.5396mm" height="41.275mm" version="1.1" style="shape-rendering:geometricPrecision; text-rendering:geometricPrecision; image-rendering:optimizeQuality; fill-rule:evenodd; clip-rule:evenodd"
viewBox="0 0 36.31 36.08"
 xmlns:xlink="http://www.w3.org/1999/xlink"
 xmlns:xodm="http://www.corel.com/coreldraw/odm/2003">
 <defs>
  <style type="text/css">
   <![CDATA[
    .fil2 {fill:none}
    .fil0 {fill:#33CC99}
    .fil1 {fill:white}
   ]]>
  </style>
 </defs>
 <g id="tutoriales">
  <metadata id="CorelCorpID_0Corel-Layer"/>
  <g id="_2168678574176">
   <ellipse class="fil0" cx="18.16" cy="18.04" rx="18.16" ry="18.04"/>
   <g>
    <path class="fil1" d="M10.52 17.93c-0.08,0.72 0.47,3.41 0.66,4.18 0.12,0.49 0.27,1.09 0.45,1.66 1.36,-1.09 2.8,-2.14 4.18,-3.13 3.04,-2.19 6.44,-4.49 9.7,-6.27 1.37,-0.75 3.56,-1.9 5.13,-1.95 0.31,-0.01 1.16,0.01 1.39,0.19l0.14 0.2c-0.23,0.15 -0.12,0.1 -0.38,0.19 -0.33,0.11 -0.66,0.22 -0.99,0.34 -0.99,0.35 -2.2,1.22 -3.06,1.85 -2.55,1.84 -5.07,3.91 -7.48,5.93 -2.3,1.94 -4.68,3.97 -6.85,6.05 -0.66,0.63 -1.13,1.28 -2.16,1.36 -1.19,0.09 -2.04,-0.72 -2.62,-1.66 -1.17,-1.92 -2.56,-6.74 -2.63,-9.02 0.03,-1.25 1.06,-2.24 2.31,-2.21 1.25,0.03 2.24,1.06 2.21,2.31z"/>
   </g>
   <path class="fil2" d="M8.26 17.88c-0.04,1.71 1.84,9.77 3.11,8.59 3.18,-2.98 15.48,-12.68 19.01,-13.52 0.25,-0.06 1.46,-0.29 1.79,-0.13"/>
  </g>
 </g>
</svg>
