<?xml version="1.0" encoding="UTF-8"?>
<!DOCTYPE svg PUBLIC "-//W3C//DTD SVG 1.1//EN" "http://www.w3.org/Graphics/SVG/1.1/DTD/svg11.dtd">
<!-- Creator: CorelDRAW 2020 (64-Bit) -->
<svg xmlns="http://www.w3.org/2000/svg" xml:space="preserve" width="199.673mm" height="66.3115mm" version="1.1" style="shape-rendering:geometricPrecision; text-rendering:geometricPrecision; image-rendering:optimizeQuality; fill-rule:evenodd; clip-rule:evenodd"
viewBox="0 0 3112.01 1033.5"
 xmlns:xlink="http://www.w3.org/1999/xlink"
 xmlns:xodm="http://www.corel.com/coreldraw/odm/2003">
 <defs>
  <style type="text/css">
   <![CDATA[
    .fil1 {fill:none}
    .fil2 {fill:#333333}
    .fil0 {fill:#6FAEFE}
    .fil4 {fill:#333333;fill-rule:nonzero}
    .fil3 {fill:#333333;fill-rule:nonzero}
   ]]>
  </style>
 </defs>
 <g id="inicio">
  <metadata id="CorelCorpID_0Corel-Layer"/>
  <g id="_3018181603328">
   <g>
    <path class="fil0" d="M231.57 576.71c-49.08,127.54 20.41,273.67 149.69,316.15 335.74,110.32 1030.49,-56.08 1398.17,-86.82 359.59,-30.06 921.72,-37.32 1266.99,52.79 22.29,5.82 49.72,9.99 65.59,25.58l0 0c-9.99,-0.6 -5.14,0.21 -14.55,-2.34l0.68 0.23c-22.49,-2.64 -13.91,-1.53 -36.46,-4.58 -214.76,-29.02 -411.46,-39.21 -628.16,-37.33 -231.1,2.01 -490.72,16.03 -719.76,47.31 -364.75,49.81 -798.68,162.83 -1164.1,138.82 -129.31,-8.49 -259.94,-29.27 -351.68,-129.33 -91.64,-99.95 -118.3,-235.96 -71.99,-363.25 11.81,-29.15 45.02,-43.21 74.17,-31.4 29.15,11.81 43.22,45.02 31.4,74.17z"/>
   </g>
   <path class="fil1" d="M178.78 555.32c-60.62,149.66 24.26,337.49 186.96,387.75 358.58,110.78 1014.91,-60.15 1399.22,-98.9 381.13,-38.44 957.75,-52.84 1334.03,34.44l13.02 5.79"/>
   <g>
    <path class="fil2" d="M23.21 659.74c127.48,-91.63 274.9,-205.13 377.12,-323.96 17.99,-20.91 34.95,-38.87 65.74,-29.77 59.04,17.45 32.06,95.9 22.71,137.49 -5.5,24.46 -12.06,50.76 -18.42,77.45 33.23,-32.42 67.34,-64.32 97.68,-93.32 39.58,-37.82 205.41,-197.18 233.11,-213.15 31.01,-17.88 58.58,2.96 55.11,39.02 -6.87,71.44 -348.49,640.2 -411.58,736.77 -10.21,15.62 -5.78,9.9 -17.5,22.28l1.31 -12.9c8.64,-40.44 96.8,-212.99 119.52,-258.1 27.09,-53.78 121.27,-233.43 183.21,-363.75 -44.4,44.46 -88.45,90.04 -131.14,133.99 -48.07,49.49 -109.69,109.86 -151.62,161.99 -22.86,28.42 -58.87,34.76 -81.55,5.49 -22.96,-29.62 -2.3,-110.99 4.74,-147.27 1.32,-6.82 2.8,-14.06 4.37,-21.58 -88.81,87.81 -188.97,168.12 -285.31,241.08 -25.34,18.64 -60.99,13.2 -79.63,-12.13 -18.64,-25.34 -13.21,-60.99 12.13,-79.63zm354.25 -41.77c-0.65,0.6 -1.13,1.11 -1.23,1.42 0.41,-0.47 0.82,-0.95 1.23,-1.42z"/>
   </g>
   <path class="fil1" d="M56.96 705.62c130.54,-96.01 290.47,-224.2 391.55,-349.42 29.06,-36.01 -81.17,350.15 -36.16,290.39 32.13,-42.66 369.82,-375.26 409.27,-403.66 11.75,44.4 -350,666.96 -394.44,769.63"/>
   <g>
    <path class="fil2" d="M603.15 725.17c53.18,-70.12 105.7,-154.54 155.13,-229.07 43.03,-64.89 87.29,-133.66 133.48,-195.84 20.64,-27.79 49.7,-64.92 88.65,-41.31 30.91,18.75 24.88,67.52 22.74,99.57 -5.96,89.62 -32.21,176.95 -51.19,264.27 6.95,-9.67 13.4,-18.63 19.02,-26.31 116.37,-158.73 238.53,-330.88 366.94,-479.03 22.61,-26.08 95.35,-108.25 125.5,-116.7l11.1 -0.76 0 0c-31.88,35.38 -53.21,60.98 -81.28,99.21 -148.07,201.73 -280.58,418.96 -422.36,625.44 -19.16,27.9 -49.1,84.38 -86.19,77.13 -28.82,-5.63 -32.4,-29.45 -32.12,-53.73 1.02,-89.71 24.99,-180.71 41.18,-270.79 -11.78,19.21 -23.28,38.1 -34.38,56.01 -52.54,84.72 -108.19,180.5 -165.2,260.36 -18.91,25.14 -54.62,30.19 -79.75,11.28 -25.14,-18.91 -30.19,-54.62 -11.28,-79.75z"/>
   </g>
   <path class="fil1" d="M648.67 759.41c56.84,-75.56 285.24,-449.9 306.66,-459.08 11.06,145.6 -63.02,318.84 -63.01,462.52 23.03,-6.28 498.25,-739.8 582.22,-762.85"/>
   <path class="fil3" d="M1379.44 767.16c0.39,2.27 0.61,4.4 0.67,6.39 0.06,1.99 -0.01,4.11 -0.19,6.39l-86.84 0c0.08,-1.99 0.1,-3.76 0.05,-5.32 -0.05,-1.56 -0.13,-3.05 -0.23,-4.47l-3.84 -34.91 -170.28 0 -26.25 34.48c-1.13,1.7 -2.26,3.41 -3.38,5.11 -1.13,1.7 -2.11,3.41 -2.96,5.11l-88.97 0c1.31,-2.27 2.65,-4.4 4.02,-6.39 1.36,-1.99 2.99,-4.12 4.87,-6.39l178.12 -228.18c14.11,-17.88 29.29,-31.22 45.52,-40.02 16.24,-8.8 34.71,-13.2 55.43,-13.2 20.15,0 35.52,4.4 46.11,13.2 10.58,8.8 17.05,22.14 19.4,40.02l28.78 228.18zm-97.61 -95.36l-10.37 -103.02c-0.39,-3.12 -1.49,-5.39 -3.29,-6.81 -1.8,-1.42 -4.13,-2.13 -6.96,-2.13 -2.55,0 -5.18,0.64 -7.87,1.92 -2.69,1.28 -5.31,3.62 -7.85,7.02l-77.75 103.02 114.09 0zm498.92 -103.45l-206.9 0c-4.82,0 -8.75,0.5 -11.77,1.49 -3.02,0.99 -5.67,2.34 -7.93,4.04 -5.28,3.97 -8.9,8.94 -10.86,14.9 -2.06,6.24 -1.32,11.35 2.19,15.33 1.23,1.42 2.94,2.48 5.12,3.19 2.18,0.71 5.54,1.06 10.08,1.06l126.44 0c16.18,0 29.1,2.34 38.77,7.02 9.67,4.68 17.03,11 22.08,18.94 5.05,7.95 8.09,17.03 9.13,27.25 1.04,10.22 -0.31,21 -4.05,32.35 -3.46,10.5 -8.69,20.58 -15.69,30.23 -7.01,9.65 -15.04,18.31 -24.09,25.97 -10.93,9.08 -23.18,16.32 -36.73,21.71 -13.55,5.39 -28.84,8.09 -45.87,8.09l-223.07 0 24.24 -73.65 209.45 0c5.96,0 10.78,-0.64 14.46,-1.92 3.68,-1.28 6.89,-3.05 9.63,-5.32 4.34,-3.69 7.35,-8.09 9.03,-13.2 2.05,-6.24 1.75,-11.35 -0.92,-15.33 -1.24,-2.27 -3.19,-3.9 -5.84,-4.9 -2.65,-0.99 -6.82,-1.49 -12.49,-1.49l-117.07 0c-19.3,0 -34.07,-2.34 -44.31,-7.02 -10.24,-4.68 -17.88,-11 -22.93,-18.94 -5.05,-7.95 -8.04,-16.96 -8.98,-27.03 -0.94,-10.07 0.55,-21.07 4.47,-32.99 3.83,-11.64 9.62,-22.56 17.39,-32.78 7.76,-10.22 16.78,-19.3 27.06,-27.25 10.28,-7.95 22.01,-14.26 35.18,-18.94 13.18,-4.68 29.41,-7.02 48.71,-7.02l211.15 0 -25.08 76.2zm386.93 -76.2l-25.08 76.2 -126.01 0 -69.63 211.58 -77.48 0 69.63 -211.58 -126.44 0 25.08 -76.2 329.93 0zm12.57 287.78l-77.05 0 88.82 -269.9c3.92,-11.92 12.27,-17.88 25.04,-17.88l204.34 0c17.88,0 31.82,2.48 41.82,7.45 10,4.97 17.62,11.56 22.86,19.8 4.67,7.38 7.45,15.96 8.34,25.76 0.89,9.79 -0.43,20.08 -3.99,30.86 -3.83,11.64 -9.43,22.63 -16.82,32.99 -7.38,10.36 -17.4,19.23 -30.04,26.61 7.78,5.68 12.42,12.91 13.93,21.71 1.5,8.8 -0.45,21.43 -5.87,37.89l-18.91 57.47c-2.06,6.24 -3.66,11.35 -4.83,15.33 -1.17,3.97 -2.12,7.95 -2.86,11.92l-77.91 0c1.2,-6.24 2.88,-12.63 5.03,-19.16l18.91 -57.47c2.99,-9.08 2.72,-15.61 -0.79,-19.58 -3.52,-3.97 -10.95,-5.96 -22.3,-5.96l-134.1 0 -33.62 102.17zm191.43 -167.73c5.39,0 10.07,-0.85 14.04,-2.55 3.97,-1.7 7.55,-3.97 10.76,-6.81 5.19,-4.54 8.66,-9.51 10.44,-14.9 2.15,-6.53 1.79,-11.92 -1.06,-16.18 -2.86,-5.11 -8.97,-7.66 -18.34,-7.66l-129.84 0c-4.26,0 -7.09,2.13 -8.49,6.39l-13.73 41.72 136.23 0zm459.01 154.96c0.39,2.27 0.61,4.4 0.67,6.39 0.06,1.99 -0.01,4.11 -0.19,6.39l-86.84 0c0.08,-1.99 0.1,-3.76 0.05,-5.32 -0.05,-1.56 -0.13,-3.05 -0.23,-4.47l-3.84 -34.91 -170.28 0 -26.25 34.48c-1.13,1.7 -2.26,3.41 -3.38,5.11 -1.13,1.7 -2.11,3.41 -2.96,5.11l-88.97 0c1.31,-2.27 2.65,-4.4 4.02,-6.39 1.36,-1.99 2.99,-4.12 4.87,-6.39l178.12 -228.18c14.11,-17.88 29.29,-31.22 45.52,-40.02 16.24,-8.8 34.71,-13.2 55.43,-13.2 20.15,0 35.52,4.4 46.11,13.2 10.58,8.8 17.05,22.14 19.4,40.02l28.78 228.18zm-97.61 -95.36l-10.37 -103.02c-0.39,-3.12 -1.49,-5.39 -3.29,-6.81 -1.8,-1.42 -4.13,-2.13 -6.96,-2.13 -2.55,0 -5.18,0.64 -7.87,1.92 -2.69,1.28 -5.31,3.62 -7.85,7.02l-77.75 103.02 114.09 0zm300.93 -179.65l-94.71 287.78 -77.48 0 94.71 -287.78 77.48 0z"/>
   <path class="fil4" d="M1659.34 933.55l-24.67 99.66 49.83 0c13.67,0 27.43,-5.55 38.65,-14.67 1.24,-1 2.49,-1.99 3.59,-2.99 9.55,-8.68 16.75,-19.93 19.78,-32.18 6.84,-27.62 -10.02,-49.83 -37.5,-49.83l-49.69 0zm13.25 17.8l32.03 0c17.66,0 28.47,14.41 24.09,32.11 -4.38,17.7 -22.33,32.11 -39.98,32.11l-32.03 0 15.89 -64.21zm93.78 81.87l24.67 -99.66 -17.8 0 -24.67 99.66 17.8 0zm114.08 -58.23c3.73,-4.13 6.53,-9.11 7.87,-14.52 3.66,-14.81 -5.44,-26.91 -20.25,-26.91l-62.79 0 -24.67 99.66 0 0 0 0 67.91 0c17.51,0 35.27,-14.24 39.61,-31.75 2.75,-11.1 -0.55,-20.79 -7.68,-26.48l0 0zm-61.78 -23.64l45.13 0c4.98,0 8.09,4.13 6.86,9.11 -1.23,4.98 -6.38,9.11 -11.37,9.11l-45.13 0 4.51 -18.23zm34.26 64.07l-50.12 0 6.94 -28.05 50.12 0c7.69,0 12.4,6.27 10.5,13.95 -1.9,7.69 -9.72,13.95 -17.41,13.95l-0.04 0.14zm144.56 -81.87l-12.33 49.83c-4.37,17.65 -22.31,32.03 -39.96,32.03 -17.66,0 -28.47,-14.38 -24.1,-32.03l12.33 -49.83 -17.8 0 -12.33 49.83c-6.8,27.48 10.02,49.83 37.5,49.83 27.48,0 55.36,-22.35 62.17,-49.83l12.33 -49.83 -17.8 0zm113.9 0l-18.04 72.9c-1.23,4.98 -6.38,9.11 -11.37,9.11l-45.85 0c-4.98,0 -8.09,-4.13 -6.86,-9.11l4.63 -18.7 -17.8 0 -4.63 18.7c-3.67,14.81 5.48,26.77 20.28,26.77l45.85 0c14.81,0 29.87,-11.96 33.53,-26.77l18.04 -72.9 -17.8 0zm78.45 0c-27.48,0 -55.36,22.35 -62.17,49.83 -6.8,27.48 10.02,49.83 37.5,49.83 27.48,0 55.37,-22.35 62.17,-49.83 6.8,-27.48 -10.02,-49.83 -37.5,-49.83zm-20.26 81.87c-17.66,0 -28.48,-14.38 -24.11,-32.03 4.37,-17.66 22.31,-32.04 39.96,-32.04 17.65,0 28.47,14.38 24.1,32.04 -4.37,17.65 -22.31,32.03 -39.96,32.03zm203.17 -28.19c0,0 0,0 0,0 2.78,-0.29 5.51,-1 8.22,-2.14 10.31,-4.27 19.04,-13.67 21.72,-24.49 1.83,-7.4 0.5,-14.09 -3.14,-18.93 -3.64,-4.84 -9.59,-7.83 -17,-7.83l-62.93 0 -24.67 99.66 17.8 0 11.35 -45.85 17.8 0c6.41,0 11.11,3.42 12.98,8.54l0.22 0.85 4.92 18.65 4.71 17.8 19.93 0 -4.71 -17.8 -7.19 -28.47zm-44.29 -17.23l4.55 -18.37 45.13 0c3.13,0 4.92,1.42 5.77,2.56 0.75,1 1.89,3.27 1.08,6.55 -0.88,3.56 -3.83,6.84 -7.45,8.26 -1.28,0.57 -2.63,0.85 -3.92,0.85l-45.17 0.14zm117.81 -18.65l72.75 0 4.41 -17.8 -72.76 0c-14.81,0 -29.76,12.1 -33.43,26.91l-11.35 45.84c-3.67,14.81 5.3,26.91 20.11,26.91l72.75 0 4.4 -17.8 -72.75 0c-4.98,0 -8.09,-4.13 -6.86,-9.11l4.65 -18.79 64.07 0 4.4 -17.8 -64.07 0 2.29 -9.25c1.23,-4.98 6.38,-9.11 11.37,-9.11zm157.98 64.07l-21.45 -81.87 -61.98 81.87 -13.52 17.8 19.93 0 13.52 -17.8 32.36 -42.71 11.21 42.71 4.71 17.8 19.93 0 -4.71 -17.8zm43.89 -0.14c-6.05,-0.85 -9.8,-5.84 -9.11,-12.1l17.23 -69.62 -17.8 0 -16.81 67.91c-1.23,4.98 -1.26,9.68 -0.18,13.95 1.44,6.27 5.3,11.39 10.79,14.52 3.74,2.14 8.16,3.27 13.14,3.27l50.54 0 4.41 -17.8 -52.22 -0.14zm79.85 17.94l24.67 -99.66 -17.8 0 -24.67 99.66 17.8 0zm126.36 -72.19l0.14 -0.57c3.66,-14.81 -5.44,-26.91 -20.25,-26.91l-40.44 0c-14.81,0 -29.76,12.1 -33.43,26.91l-0.14 0.57c-1.41,5.7 -1.01,10.96 0.93,15.23 0.61,1.57 1.4,2.99 2.36,4.27 3.68,4.7 9.52,7.54 16.78,7.54l35.88 0c7.55,0 12.3,6.12 10.43,13.67 -1.87,7.55 -9.65,13.67 -17.2,13.67l-31.18 0c-7.55,0 -12.15,-6.12 -10.28,-13.67l-17.8 0c-4.3,17.37 6.31,31.47 23.68,31.47l31.18 0c17.37,0 34.96,-14.1 39.26,-31.47 1.87,-7.54 0.89,-14.52 -2.19,-19.93 -0.32,-0.43 -0.5,-0.85 -0.82,-1.28 -4.14,-6.27 -11.41,-10.25 -20.67,-10.25l-35.88 0c-4.98,0 -8.09,-4.13 -6.86,-9.11l0.14 -0.57c1.23,-4.98 6.38,-9.11 11.37,-9.11l40.44 0c4.98,0 8.09,4.13 6.86,9.11l-0.14 0.57 17.83 -0.14zm16.34 -27.48l-4.4 17.8 40.86 0 -20.26 81.87 17.8 0 20.26 -81.87 40.86 0 4.4 -17.8 -99.52 0zm152.3 81.87l-21.45 -81.87 -61.98 81.87 -13.52 17.8 19.93 0 13.52 -17.8 32.36 -42.71 11.21 42.71 4.71 17.8 19.93 0 -4.71 -17.8z"/>
  </g>
 </g>
</svg>
