<?xml version="1.0" encoding="UTF-8"?>
<!DOCTYPE svg PUBLIC "-//W3C//DTD SVG 1.1//EN" "http://www.w3.org/Graphics/SVG/1.1/DTD/svg11.dtd">
<!-- Creator: CorelDRAW 2020 (64-Bit) -->
<svg xmlns="http://www.w3.org/2000/svg" xml:space="preserve" width="29.7844mm" height="29.7844mm" version="1.1" style="shape-rendering:geometricPrecision; text-rendering:geometricPrecision; image-rendering:optimizeQuality; fill-rule:evenodd; clip-rule:evenodd"
viewBox="0 0 14.35 14.35"
 xmlns:xlink="http://www.w3.org/1999/xlink"
 xmlns:xodm="http://www.corel.com/coreldraw/odm/2003">
 <defs>
  <style type="text/css">
   <![CDATA[
    .fil0 {fill:#01BBBE}
    .fil1 {fill:white}
   ]]>
  </style>
 </defs>
 <g id="mi_x0020_cuenta">
  <metadata id="CorelCorpID_0Corel-Layer"/>
  <g id="_2353364631280">
   <circle class="fil0" cx="7.17" cy="7.17" r="7.17"/>
   <path class="fil1" d="M5.68 5.95c-0.04,0.04 -0.07,0.07 -0.11,0.12 -0.07,0.08 -0.14,0.19 -0.2,0.28 -0.42,0.69 -0.34,1.64 0.19,2.27 0.01,0.01 0.02,0.02 0.03,0.03 0.29,0.36 0.79,0.64 1.28,0.7 0.54,0.06 1.03,-0.06 1.46,-0.35 0.03,-0.02 0.02,-0.01 0.03,-0.03 0.07,-0.02 0.25,-0.2 0.29,-0.25 0.03,-0.03 0.03,-0.04 0.06,-0.07l0.17 -0.23c0.41,-0.63 0.4,-1.46 0.03,-2.08 -0.2,-0.33 -0.48,-0.61 -0.83,-0.78 -0.12,-0.06 -0.25,-0.11 -0.39,-0.15 -0.39,-0.1 -0.79,-0.1 -1.17,0.03 -0.31,0.1 -0.62,0.28 -0.83,0.52l0 -0zm2.2 2.46c-0.38,0.27 -0.96,0.3 -1.37,0.06 -0.03,-0.02 -0.06,-0.03 -0.09,-0.05 -0.22,-0.14 -0.36,-0.33 -0.47,-0.56 -0.14,-0.3 -0.13,-0.69 -0.02,-0.98 0.03,-0.07 0.06,-0.13 0.1,-0.2l0.12 -0.17 0.29 -0.24 0.36 -0.16c0.17,-0.05 0.31,-0.05 0.48,-0.04 0.21,0.02 0.47,0.12 0.64,0.25 0.33,0.25 0.6,0.7 0.51,1.22 -0.06,0.36 -0.25,0.68 -0.55,0.87l0 0z"/>
   <path class="fil1" d="M8.34 11.38l0.49 0c0.21,0 0.54,-0.06 0.71,-0.12 0.37,-0.11 0.72,-0.34 0.99,-0.6 0.04,-0.04 0.08,-0.07 0.11,-0.12l0.1 -0.12c0.2,-0.26 0.38,-0.62 0.45,-0.93 0.01,-0.06 0.02,-0.13 0.04,-0.19 0,-0.04 0.03,-0.24 0.03,-0.36l0 -2.77c0,-0.69 0.02,-1.06 -0.31,-1.67 -0.06,-0.11 -0.09,-0.14 -0.15,-0.24 -0.05,-0.08 -0.11,-0.16 -0.18,-0.22 -0.03,-0.03 -0.06,-0.07 -0.09,-0.1 -0.02,-0.02 -0.03,-0.02 -0.06,-0.05 -0.33,-0.32 -0.92,-0.61 -1.42,-0.65 -0.27,-0.02 -0.89,-0.01 -1.18,-0.01 -0.79,0 -1.58,0 -2.38,0 -0.27,0 -0.49,0.03 -0.7,0.09 -0.11,0.04 -0.19,0.05 -0.33,0.12 -0.14,0.07 -0.16,0.07 -0.29,0.15 -0.1,0.06 -0.17,0.11 -0.26,0.18 -0.05,0.04 -0.2,0.17 -0.23,0.22 -0.06,0.04 -0.26,0.32 -0.31,0.39 -0.1,0.16 -0.16,0.29 -0.23,0.48l-0.1 0.37c0,0.06 -0.04,0.22 -0.04,0.32l0 1.08c0,0.25 -0.01,2.31 0.01,2.51 0.01,0.06 0.01,0.11 0.02,0.16 0.09,0.53 0.27,0.86 0.57,1.23 0.03,0.04 0.06,0.06 0.09,0.09l0.14 0.13c0.42,0.39 1.06,0.63 1.63,0.63 0.96,-0 1.92,0 2.88,0l-0 0zm0.64 -0.78c-0.07,0 -0.1,0.01 -0.15,0.01l-1.14 -0c-0.7,0 -1.4,0 -2.1,0 -0.51,0 -0.84,-0.12 -1.18,-0.39 -0.21,-0.16 -0.34,-0.36 -0.46,-0.6 -0.21,-0.41 -0.15,-0.93 -0.15,-1.42 0,-0.7 0,-1.41 0,-2.11 0,-0.56 -0.03,-0.74 0.21,-1.22 0.07,-0.14 0.17,-0.23 0.19,-0.29 0.04,-0.03 0.07,-0.07 0.11,-0.1 0.04,-0.04 0.07,-0.07 0.12,-0.1 0.23,-0.18 0.47,-0.29 0.76,-0.35 0.04,-0.01 0.15,-0.03 0.2,-0.03l2.96 0c0.16,0 0.45,-0.02 0.59,0.01 0.21,0.03 0.28,0.04 0.48,0.12 0.14,0.05 0.35,0.18 0.46,0.28 0.03,0.03 0.05,0.04 0.08,0.07 0.21,0.21 0.37,0.45 0.45,0.74 0.08,0.29 0.07,0.52 0.07,0.83 0,0.8 0,1.59 0,2.39 0,0.53 0.04,0.82 -0.2,1.28 -0.06,0.11 -0.15,0.24 -0.24,0.33 -0.05,0.05 -0,0.02 -0.08,0.08 -0.06,0.05 -0.06,0.06 -0.16,0.14 -0.1,0.08 -0.17,0.11 -0.29,0.17 -0.05,0.03 -0.1,0.04 -0.16,0.07l-0.27 0.07c-0.03,0 -0.08,0 -0.1,0.02l0 0z"/>
   <path class="fil1" d="M9.28 5.69l0.05 0c0.23,0 0.46,-0.22 0.46,-0.45 0,-0.19 -0.04,-0.29 -0.19,-0.41 -0.17,-0.15 -0.49,-0.12 -0.65,0.05 -0.02,0.03 -0.05,0.07 -0.07,0.1 -0.18,0.28 0.04,0.72 0.4,0.72l-0 0z"/>
  </g>
 </g>
</svg>
