<?xml version="1.0" encoding="UTF-8"?>
<!DOCTYPE svg PUBLIC "-//W3C//DTD SVG 1.1//EN" "http://www.w3.org/Graphics/SVG/1.1/DTD/svg11.dtd">
<!-- Creator: CorelDRAW 2020 (64-Bit) -->
<svg xmlns="http://www.w3.org/2000/svg" xml:space="preserve" width="149.152mm" height="49.5334mm" version="1.1" style="shape-rendering:geometricPrecision; text-rendering:geometricPrecision; image-rendering:optimizeQuality; fill-rule:evenodd; clip-rule:evenodd"
viewBox="0 0 2557.31 849.28"
 xmlns:xlink="http://www.w3.org/1999/xlink"
 xmlns:xodm="http://www.corel.com/coreldraw/odm/2003">
 <defs>
  <style type="text/css">
   <![CDATA[
    .fil1 {fill:none}
    .fil0 {fill:white}
    .fil2 {fill:white;fill-rule:nonzero}
   ]]>
  </style>
 </defs>
 <g id="Capa_x0020_1">
  <metadata id="CorelCorpID_0Corel-Layer"/>
  <g id="_2479271811872">
   <g>
    <path class="fil0" d="M190.29 473.91c-40.33,104.81 16.77,224.89 123,259.79 275.9,90.65 846.81,-46.09 1148.95,-71.35 295.5,-24.7 757.42,-30.67 1041.15,43.38 18.31,4.78 40.86,8.21 53.9,21.02l0 0c-8.21,-0.49 -4.23,0.17 -11.96,-1.92l0.56 0.19c-18.48,-2.17 -11.43,-1.26 -29.96,-3.76 -176.48,-23.84 -338.12,-32.23 -516.2,-30.67 -189.91,1.65 -403.25,13.18 -591.46,38.88 -299.74,40.93 -656.32,133.8 -956.6,114.08 -106.26,-6.98 -213.6,-24.05 -289,-106.28 -75.31,-82.13 -97.22,-193.9 -59.16,-298.51 9.71,-23.96 37,-35.51 60.95,-25.81 23.96,9.71 35.51,37 25.81,60.95z"/>
   </g>
   <path class="fil1" d="M146.91 456.34c-49.81,122.98 19.94,277.33 153.64,318.64 294.66,91.03 834.01,-49.43 1149.81,-81.28 313.19,-31.58 787.04,-43.42 1096.25,28.31l10.7 4.75"/>
   <g>
    <path class="fil0" d="M19.08 542.15c104.76,-75.3 225.9,-168.57 309.9,-266.22 14.78,-17.18 28.72,-31.94 54.02,-24.47 48.52,14.34 26.35,78.81 18.66,112.99 -4.52,20.1 -9.91,41.71 -15.14,63.65 27.3,-26.64 55.33,-52.86 80.27,-76.69 32.53,-31.08 168.8,-162.04 191.56,-175.16 25.48,-14.69 48.14,2.43 45.29,32.07 -5.65,58.7 -286.37,526.09 -338.22,605.45 -8.39,12.84 -4.75,8.14 -14.38,18.31l1.08 -10.6c7.1,-33.23 79.54,-175.02 98.22,-212.09 22.26,-44.19 99.66,-191.82 150.55,-298.91 -36.48,36.53 -72.68,73.99 -107.76,110.11 -39.5,40.67 -90.14,90.28 -124.59,133.11 -18.78,23.35 -48.37,28.56 -67.02,4.51 -18.87,-24.34 -1.89,-91.2 3.89,-121.02 1.09,-5.61 2.3,-11.55 3.59,-17.73 -72.98,72.16 -155.28,138.15 -234.45,198.11 -20.82,15.32 -50.12,10.85 -65.43,-9.97 -15.32,-20.82 -10.85,-50.12 9.97,-65.43zm291.1 -34.33c-0.54,0.49 -0.93,0.91 -1.01,1.17 0.33,-0.39 0.67,-0.78 1.01,-1.17z"/>
   </g>
   <path class="fil1" d="M46.81 579.85c107.27,-78.89 238.7,-184.24 321.76,-287.14 23.88,-29.59 -66.7,287.74 -29.72,238.63 26.4,-35.06 303.9,-308.37 336.32,-331.71 9.66,36.49 -287.62,548.08 -324.13,632.45"/>
   <g>
    <path class="fil0" d="M495.64 595.92c43.7,-57.62 86.86,-126.99 127.47,-188.24 35.36,-53.32 71.73,-109.84 109.69,-160.93 16.96,-22.83 40.84,-53.35 72.85,-33.95 25.4,15.41 20.44,55.48 18.69,81.82 -4.9,73.64 -26.47,145.41 -42.07,217.16 5.71,-7.95 11.01,-15.31 15.63,-21.62 95.63,-130.43 196.01,-271.9 301.53,-393.65 18.58,-21.43 78.35,-88.96 103.13,-95.9l9.12 -0.62 0 0c-26.2,29.07 -43.73,50.11 -66.79,81.53 -121.68,165.77 -230.57,344.29 -347.08,513.96 -15.74,22.93 -40.35,69.34 -70.83,63.38 -23.68,-4.63 -26.62,-24.2 -26.39,-44.15 0.84,-73.72 20.54,-148.5 33.84,-222.52 -9.68,15.78 -19.13,31.31 -28.26,46.03 -43.17,69.62 -88.91,148.33 -135.75,213.95 -15.54,20.66 -44.88,24.81 -65.54,9.27 -20.66,-15.54 -24.81,-44.88 -9.27,-65.54z"/>
   </g>
   <path class="fil1" d="M533.05 624.05c46.71,-62.09 234.4,-369.71 252,-377.25 9.09,119.65 -51.78,262.01 -51.78,380.08 18.93,-5.16 409.44,-607.94 478.44,-626.87"/>
   <path class="fil2" d="M1133.56 630.41c0.32,1.87 0.5,3.61 0.55,5.25 0.04,1.63 -0.01,3.38 -0.15,5.25l-71.37 0c0.07,-1.63 0.08,-3.09 0.04,-4.37 -0.04,-1.28 -0.11,-2.51 -0.19,-3.67l-3.15 -28.69 -139.93 0 -21.57 28.34c-0.93,1.4 -1.85,2.8 -2.78,4.2 -0.93,1.4 -1.74,2.8 -2.43,4.2l-73.11 0c1.08,-1.87 2.18,-3.61 3.3,-5.25 1.12,-1.63 2.45,-3.38 4,-5.25l146.37 -187.51c11.6,-14.69 24.07,-25.65 37.41,-32.88 13.34,-7.23 28.52,-10.84 45.55,-10.84 16.56,0 29.19,3.61 37.89,10.84 8.7,7.23 14.01,18.19 15.94,32.88l23.65 187.51zm-80.21 -78.36l-8.52 -84.66c-0.32,-2.57 -1.22,-4.43 -2.71,-5.6 -1.48,-1.17 -3.39,-1.75 -5.72,-1.75 -2.1,0 -4.25,0.52 -6.46,1.57 -2.21,1.05 -4.36,2.97 -6.45,5.77l-63.89 84.66 93.75 0zm409.99 -85.01l-170.02 0c-3.96,0 -7.19,0.41 -9.67,1.22 -2.49,0.82 -4.66,1.92 -6.52,3.32 -4.34,3.26 -7.31,7.35 -8.93,12.24 -1.69,5.13 -1.09,9.33 1.8,12.6 1.02,1.17 2.42,2.04 4.21,2.62 1.79,0.58 4.55,0.87 8.28,0.87l103.9 0c13.29,0 23.91,1.92 31.86,5.77 7.95,3.85 13.99,9.04 18.14,15.57 4.15,6.53 6.65,13.99 7.5,22.39 0.85,8.4 -0.26,17.26 -3.33,26.59 -2.84,8.63 -7.14,16.91 -12.9,24.84 -5.76,7.93 -12.36,15.04 -19.79,21.34 -8.99,7.46 -19.05,13.41 -30.18,17.84 -11.14,4.43 -23.7,6.65 -37.69,6.65l-183.31 0 19.92 -60.52 172.12 0c4.9,0 8.86,-0.52 11.89,-1.57 3.03,-1.05 5.66,-2.51 7.91,-4.37 3.56,-3.03 6.03,-6.65 7.42,-10.84 1.69,-5.13 1.44,-9.33 -0.75,-12.59 -1.02,-1.87 -2.62,-3.21 -4.8,-4.02 -2.18,-0.82 -5.6,-1.23 -10.27,-1.23l-96.2 0c-15.86,0 -28,-1.92 -36.41,-5.77 -8.41,-3.85 -14.69,-9.04 -18.84,-15.57 -4.15,-6.53 -6.61,-13.93 -7.38,-22.21 -0.77,-8.28 0.45,-17.32 3.68,-27.11 3.15,-9.56 7.91,-18.54 14.29,-26.94 6.38,-8.4 13.79,-15.86 22.24,-22.39 8.45,-6.53 18.08,-11.72 28.91,-15.57 10.83,-3.85 24.17,-5.77 40.03,-5.77l173.52 0 -20.61 62.62zm317.97 -62.62l-20.61 62.62 -103.55 0 -57.22 173.87 -63.67 0 57.22 -173.87 -103.9 0 20.61 -62.62 271.12 0zm10.33 236.49l-63.32 0 72.99 -221.79c3.22,-9.8 10.08,-14.69 20.58,-14.69l167.92 0c14.69,0 26.15,2.04 34.37,6.12 8.22,4.08 14.48,9.5 18.78,16.27 3.84,6.06 6.12,13.12 6.85,21.16 0.73,8.05 -0.36,16.5 -3.27,25.36 -3.15,9.56 -7.75,18.6 -13.82,27.11 -6.07,8.51 -14.3,15.8 -24.69,21.86 6.39,4.67 10.21,10.61 11.44,17.84 1.23,7.23 -0.37,17.61 -4.82,31.13l-15.54 47.23c-1.69,5.13 -3.01,9.33 -3.97,12.59 -0.96,3.26 -1.74,6.53 -2.35,9.8l-64.02 0c0.99,-5.13 2.37,-10.38 4.13,-15.74l15.54 -47.23c2.46,-7.46 2.24,-12.83 -0.65,-16.09 -2.89,-3.26 -9,-4.9 -18.33,-4.9l-110.2 0 -27.63 83.96zm157.31 -137.83c4.43,0 8.28,-0.7 11.54,-2.1 3.26,-1.4 6.21,-3.26 8.84,-5.6 4.26,-3.73 7.12,-7.81 8.58,-12.24 1.76,-5.36 1.47,-9.8 -0.87,-13.29 -2.35,-4.2 -7.37,-6.3 -15.07,-6.3l-106.7 0c-3.5,0 -5.82,1.75 -6.97,5.25l-11.28 34.28 111.95 0zm377.19 127.34c0.32,1.87 0.5,3.61 0.55,5.25 0.04,1.63 -0.01,3.38 -0.15,5.25l-71.37 0c0.07,-1.63 0.08,-3.09 0.04,-4.37 -0.04,-1.28 -0.11,-2.51 -0.19,-3.67l-3.15 -28.69 -139.93 0 -21.57 28.34c-0.93,1.4 -1.85,2.8 -2.78,4.2 -0.93,1.4 -1.74,2.8 -2.43,4.2l-73.11 0c1.08,-1.87 2.18,-3.61 3.3,-5.25 1.12,-1.63 2.45,-3.38 4,-5.25l146.37 -187.51c11.6,-14.69 24.07,-25.65 37.41,-32.88 13.34,-7.23 28.52,-10.84 45.55,-10.84 16.56,0 29.19,3.61 37.89,10.84 8.7,7.23 14.01,18.19 15.94,32.88l23.65 187.51zm-80.21 -78.36l-8.52 -84.66c-0.32,-2.57 -1.22,-4.43 -2.71,-5.6 -1.48,-1.17 -3.39,-1.75 -5.72,-1.75 -2.1,0 -4.25,0.52 -6.46,1.57 -2.21,1.05 -4.36,2.97 -6.45,5.77l-63.89 84.66 93.75 0zm247.29 -147.63l-77.83 236.49 -63.67 0 77.83 -236.49 63.67 0z"/>
   <path class="fil2" d="M1363.57 767.15l-20.27 81.9 40.95 0c11.23,0 22.54,-4.56 31.76,-12.05 1.02,-0.82 2.04,-1.64 2.95,-2.46 7.85,-7.14 13.76,-16.38 16.26,-26.44 5.62,-22.7 -8.23,-40.95 -30.81,-40.95l-40.83 0zm10.89 14.63l26.33 0c14.51,0 23.39,11.84 19.79,26.38 -3.6,14.55 -18.35,26.38 -32.85,26.38l-26.32 0 13.06 -52.77zm77.06 67.27l20.27 -81.9 -14.63 0 -20.27 81.9 14.63 0zm93.74 -47.85c3.06,-3.39 5.36,-7.49 6.46,-11.93 3.01,-12.17 -4.47,-22.11 -16.64,-22.11l-51.59 0 -20.27 81.9 0 0 0 0 55.81 0c14.39,0 28.99,-11.7 32.55,-26.09 2.26,-9.12 -0.45,-17.08 -6.31,-21.76l0 0zm-50.77 -19.42l37.09 0c4.1,0 6.65,3.39 5.64,7.49 -1.01,4.09 -5.25,7.49 -9.34,7.49l-37.09 0 3.71 -14.98zm28.15 52.65l-41.18 0 5.7 -23.05 41.18 0c6.32,0 10.19,5.15 8.63,11.47 -1.56,6.32 -7.99,11.47 -14.3,11.47l-0.03 0.12zm118.79 -67.27l-10.13 40.95c-3.59,14.51 -18.33,26.33 -32.84,26.33 -14.51,0 -23.4,-11.82 -19.81,-26.33l10.13 -40.95 -14.63 0 -10.13 40.95c-5.59,22.58 8.23,40.95 30.81,40.95 22.58,0 45.5,-18.37 51.09,-40.95l10.14 -40.95 -14.63 0zm93.6 0l-14.83 59.9c-1.01,4.09 -5.25,7.49 -9.34,7.49l-37.67 0c-4.09,0 -6.65,-3.39 -5.63,-7.49l3.8 -15.37 -14.63 0 -3.8 15.37c-3.01,12.17 4.5,21.99 16.67,21.99l37.67 0c12.17,0 24.55,-9.83 27.56,-21.99l14.83 -59.9 -14.63 0zm64.47 0c-22.58,0 -45.5,18.37 -51.09,40.95 -5.59,22.58 8.23,40.95 30.81,40.95 22.58,0 45.5,-18.37 51.09,-40.95 5.59,-22.58 -8.23,-40.95 -30.81,-40.95zm-16.65 67.27c-14.51,0 -23.4,-11.82 -19.81,-26.33 3.59,-14.51 18.33,-26.32 32.84,-26.32 14.51,0 23.4,11.82 19.81,26.32 -3.59,14.51 -18.33,26.33 -32.84,26.33zm166.96 -23.17c0,0 0,0 0,0 2.28,-0.23 4.53,-0.82 6.75,-1.75 8.47,-3.51 15.65,-11.23 17.85,-20.12 1.51,-6.08 0.41,-11.58 -2.58,-15.56 -2.99,-3.98 -7.89,-6.43 -13.97,-6.43l-51.71 0 -20.27 81.9 14.63 0 9.32 -37.67 14.63 0c5.27,0 9.13,2.81 10.66,7.02l0.18 0.7 4.04 15.33 3.87 14.63 16.38 0 -3.87 -14.63 -5.91 -23.4zm-36.39 -14.16l3.74 -15.09 37.09 0c2.58,0 4.04,1.17 4.75,2.11 0.62,0.82 1.56,2.69 0.89,5.38 -0.72,2.93 -3.14,5.62 -6.12,6.79 -1.05,0.47 -2.16,0.7 -3.22,0.7l-37.12 0.12zm96.81 -15.33l59.79 0 3.62 -14.63 -59.79 0c-12.17,0 -24.46,9.94 -27.47,22.11l-9.33 37.67c-3.01,12.17 4.36,22.11 16.52,22.11l59.79 0 3.62 -14.62 -59.79 0c-4.09,0 -6.65,-3.39 -5.63,-7.49l3.82 -15.44 52.65 0 3.62 -14.63 -52.65 0 1.88 -7.6c1.02,-4.1 5.25,-7.49 9.34,-7.49zm129.82 52.65l-17.63 -67.27 -50.93 67.27 -11.11 14.62 16.38 0 11.11 -14.62 26.59 -35.1 9.21 35.1 3.87 14.62 16.38 0 -3.87 -14.62zm36.07 -0.12c-4.97,-0.7 -8.06,-4.8 -7.48,-9.94l14.16 -57.21 -14.63 0 -13.81 55.81c-1.01,4.1 -1.03,7.96 -0.15,11.47 1.18,5.15 4.35,9.36 8.86,11.93 3.08,1.76 6.7,2.69 10.8,2.69l41.54 0 3.62 -14.62 -42.91 -0.12zm65.61 14.74l20.27 -81.9 -14.63 0 -20.27 81.9 14.63 0zm103.83 -59.32l0.12 -0.47c3.01,-12.17 -4.47,-22.11 -16.64,-22.11l-33.23 0c-12.17,0 -24.46,9.94 -27.47,22.11l-0.11 0.47c-1.16,4.68 -0.83,9.01 0.76,12.52 0.5,1.29 1.15,2.46 1.94,3.51 3.02,3.86 7.82,6.2 13.79,6.2l29.48 0c6.2,0 10.1,5.03 8.57,11.23 -1.53,6.2 -7.93,11.23 -14.13,11.23l-25.62 0c-6.2,0 -9.99,-5.03 -8.45,-11.23l-14.63 0c-3.53,14.27 5.18,25.86 19.46,25.86l25.62 0c14.27,0 28.72,-11.58 32.26,-25.86 1.53,-6.2 0.73,-11.94 -1.8,-16.38 -0.26,-0.35 -0.41,-0.7 -0.68,-1.05 -3.41,-5.15 -9.38,-8.42 -16.99,-8.42l-29.48 0c-4.09,0 -6.65,-3.39 -5.63,-7.49l0.12 -0.47c1.01,-4.09 5.25,-7.49 9.34,-7.49l33.23 0c4.09,0 6.65,3.39 5.63,7.49l-0.12 0.47 14.65 -0.12zm13.43 -22.58l-3.62 14.63 33.58 0 -16.65 67.27 14.63 0 16.65 -67.27 33.58 0 3.62 -14.63 -81.78 0zm125.15 67.27l-17.63 -67.27 -50.93 67.27 -11.11 14.62 16.38 0 11.11 -14.62 26.59 -35.1 9.21 35.1 3.87 14.62 16.38 0 -3.87 -14.62z"/>
  </g>
 </g>
</svg>
