<?xml version="1.0" encoding="UTF-8"?>
<!DOCTYPE svg PUBLIC "-//W3C//DTD SVG 1.1//EN" "http://www.w3.org/Graphics/SVG/1.1/DTD/svg11.dtd">
<!-- Creator: CorelDRAW 2020 (64-Bit) -->
<svg xmlns="http://www.w3.org/2000/svg" xml:space="preserve" width="29.7845mm" height="29.7845mm" version="1.1" style="shape-rendering:geometricPrecision; text-rendering:geometricPrecision; image-rendering:optimizeQuality; fill-rule:evenodd; clip-rule:evenodd"
viewBox="0 0 343.26 343.26"
 xmlns:xlink="http://www.w3.org/1999/xlink"
 xmlns:xodm="http://www.corel.com/coreldraw/odm/2003">
 <defs>
  <style type="text/css">
   <![CDATA[
    .fil0 {fill:#2059BD}
    .fil1 {fill:#E6E6E6}
   ]]>
  </style>
 </defs>
 <g id="Capa_x0020_1">
  <metadata id="CorelCorpID_0Corel-Layer"/>
  <g id="_2479486389728">
   <circle class="fil0" cx="171.63" cy="171.63" r="171.63"/>
   <path class="fil1" d="M136.02 142.48c-1.07,0.92 -1.68,1.74 -2.63,2.81 -1.72,1.93 -3.4,4.49 -4.75,6.71 -9.94,16.39 -8.22,39.34 4.43,54.31 0.26,0.31 0.38,0.39 0.62,0.7 6.96,8.62 18.98,15.34 30.63,16.74 12.83,1.54 24.75,-1.32 34.88,-8.46 0.69,-0.48 0.44,-0.13 0.68,-0.76 1.62,-0.36 5.92,-4.83 6.98,-5.89 0.64,-0.64 0.83,-1.02 1.43,-1.66l4.11 -5.58c9.78,-14.96 9.56,-35 0.67,-49.76 -4.77,-7.92 -11.59,-14.49 -19.92,-18.63 -2.84,-1.41 -5.88,-2.63 -9.25,-3.52 -9.38,-2.48 -18.94,-2.41 -28.01,0.63 -7.35,2.46 -14.92,6.78 -19.87,12.37zm52.64 58.83c-9.19,6.51 -22.92,7.25 -32.75,1.55 -0.78,-0.45 -1.45,-0.8 -2.24,-1.29 -5.23,-3.29 -8.64,-7.95 -11.27,-13.41 -3.4,-7.08 -3.22,-16.46 -0.4,-23.46 0.7,-1.73 1.43,-3.14 2.36,-4.69l2.89 -4.09 6.83 -5.8 8.71 -3.85c3.99,-1.08 7.31,-1.2 11.4,-0.91 5.08,0.37 11.34,2.92 15.28,5.87 7.93,5.94 14.43,16.79 12.31,29.18 -1.48,8.64 -6,16.16 -13.13,20.9z"/>
   <path class="fil1" d="M199.54 272.25l11.68 0c4.96,0.02 12.97,-1.32 17.07,-2.87 8.78,-2.64 17.29,-8.03 23.64,-14.38 0.96,-0.96 1.9,-1.77 2.7,-2.81l2.4 -2.89c4.71,-6.12 9.2,-14.73 10.77,-22.28 0.32,-1.51 0.58,-3.11 0.94,-4.55 0,-1.07 0.66,-5.74 0.66,-8.62l-0 -66.32c0,-16.44 0.5,-25.46 -7.42,-39.95 -1.43,-2.62 -2.07,-3.44 -3.69,-5.78 -1.24,-1.8 -2.75,-3.72 -4.26,-5.21 -0.83,-0.82 -1.32,-1.65 -2.2,-2.42 -0.54,-0.47 -0.78,-0.56 -1.32,-1.1 -7.8,-7.73 -21.92,-14.61 -34,-15.57 -6.35,-0.51 -21.32,-0.24 -28.18,-0.24 -18.95,0 -37.9,0 -56.84,0 -6.55,0 -11.61,0.71 -16.65,2.2 -2.53,0.96 -4.48,1.25 -7.81,2.86 -3.43,1.67 -3.73,1.74 -6.93,3.65 -2.36,1.41 -4.09,2.72 -6.2,4.38 -1.29,1.01 -4.79,3.96 -5.6,5.19 -1.5,1 -6.34,7.61 -7.4,9.35 -2.35,3.83 -3.92,7.01 -5.57,11.4l-2.45 8.78c0,1.48 -0.86,5.27 -0.89,7.7l0.01 25.79c0,5.98 -0.33,55.22 0.18,59.96 0.15,1.41 0.22,2.63 0.41,3.78 2.08,12.72 6.51,20.51 13.69,29.49 0.69,0.86 1.45,1.36 2.14,2.26l3.23 3.16c10.04,9.29 25.27,15.04 38.94,15.03 22.99,-0.01 45.97,0 68.96,0zm15.31 -18.73c-1.57,0 -2.3,0.21 -3.62,0.23l-27.33 -0.01c-16.74,0 -33.49,0 -50.23,0 -12.11,0 -20.04,-2.79 -28.33,-9.35 -4.93,-3.9 -8.23,-8.7 -11.04,-14.3 -4.94,-9.86 -3.6,-22.37 -3.6,-34.08 0,-16.82 0,-33.64 0,-50.45 0,-13.4 -0.81,-17.68 5.07,-29.08 1.67,-3.24 3.98,-5.6 4.63,-6.83 0.96,-0.63 1.74,-1.63 2.59,-2.48 1.02,-1.02 1.64,-1.58 2.79,-2.49 5.49,-4.31 11.14,-6.97 18.13,-8.31 1.05,-0.2 3.55,-0.6 4.79,-0.6l70.84 0c3.92,0 10.68,-0.38 14.2,0.12 5.05,0.73 6.76,0.97 11.55,2.77 3.36,1.26 8.37,4.31 11.1,6.74 0.74,0.65 1.15,0.93 1.87,1.65 4.92,4.97 8.83,10.87 10.76,17.66 1.97,6.93 1.63,12.35 1.63,19.96 0,19.03 0,38.06 0,57.09 0,12.68 0.84,19.63 -4.85,30.6 -1.42,2.74 -3.55,5.85 -5.68,7.98 -1.18,1.19 -0.02,0.38 -1.97,2 -1.33,1.1 -1.42,1.55 -3.78,3.27 -2.46,1.8 -3.99,2.74 -6.86,4.15 -1.28,0.63 -2.5,1.04 -3.93,1.57l-6.42 1.73c-0.66,0.11 -1.82,0.11 -2.32,0.44z"/>
   <path class="fil1" d="M222.02 136.09l1.1 0c5.59,0 11.02,-5.19 11.02,-10.8 0,-4.6 -1.07,-6.95 -4.47,-9.85 -4.17,-3.56 -11.73,-2.96 -15.53,1.09 -0.58,0.62 -1.3,1.67 -1.77,2.41 -4.29,6.74 1,17.15 9.66,17.15z"/>
  </g>
 </g>
</svg>
